<svg width="80" height="80" viewBox="0 0 80 80" fill="none" xmlns="http://www.w3.org/2000/svg">
<path fill-rule="evenodd" clip-rule="evenodd" d="M47.47 15.4365C45.4441 14.5674 43.347 13.9836 41.1889 13.6693C38.9784 13.348 36.7388 13.2699 34.4998 13.3925C31.2483 13.5706 28.0482 14.0523 24.8901 14.8598C21.3781 15.7575 18.0892 17.1535 15.1196 19.2233C14.0293 19.9833 12.9529 20.8072 12.0972 21.8665C11.45 22.6677 10.669 23.3757 10.114 24.233C9.30637 25.4802 8.56253 26.7858 7.94487 28.1368C6.70189 30.8534 6.27989 33.7414 6.54681 36.7116C6.69248 38.3367 6.8348 39.9774 7.18852 41.5646C7.55575 43.2108 8.15872 44.8062 8.69173 46.4132C9.14267 47.7742 9.61692 49.1282 10.1248 50.469C10.8674 52.4293 11.5342 54.4302 12.4422 56.3132C13.5984 58.7112 14.7777 61.1262 16.615 63.1152C18.3957 65.0435 20.4821 66.5693 22.9907 67.3669C25.1869 68.0651 27.4423 68.0877 29.7198 67.578C32.236 67.0153 34.3481 65.7243 36.216 64.0527C37.5804 62.8315 38.7668 61.4121 39.825 59.8981C40.6971 58.6511 41.55 57.3811 42.5322 56.2245C43.5663 55.0066 44.5947 53.7672 45.8652 52.7684C47.6672 51.3513 49.4742 49.9399 51.2517 48.4925C52.813 47.2203 54.1747 45.7491 55.44 44.1806C56.4782 42.8941 57.2971 41.4787 57.9042 39.9594C59.045 37.1024 59.7098 34.1651 59.2895 31.0417C59.0398 29.1844 58.7334 27.3545 57.9405 25.6455C57.5544 24.8127 57.1287 23.9909 56.6385 23.2164C56.0421 22.2733 55.3589 21.3856 54.9893 20.8638C52.6304 18.2935 50.2376 16.6233 47.47 15.4365Z" fill="#E6A386"/>
<path fill-rule="evenodd" clip-rule="evenodd" d="M68.5775 64.8618C67.4659 65.8169 66.1608 66.473 64.7853 67.0142C62.8161 67.7891 60.8489 68.5685 58.8548 69.2931C57.5808 69.7564 56.2962 70.222 54.9518 70.5122C53.123 70.9072 51.2099 70.9916 49.2164 70.708C47.381 70.447 45.5858 69.9155 43.824 69.0832C42.2487 68.3391 40.7843 67.3675 39.3951 66.2009C37.7689 64.835 36.3779 63.2656 35.1971 61.5207C34.227 60.0874 33.4666 58.5427 32.9051 56.9422C31.89 54.0485 31.5539 51.1892 31.9515 48.4153C32.2064 46.6395 32.7394 44.9884 33.5864 43.4925C34.3232 42.1913 35.2495 41.0712 36.3101 40.0878C37.154 39.3051 38.1653 38.7225 39.2187 38.2068C40.476 37.5915 41.8314 37.2091 43.2593 37.0195C45.4944 36.7229 47.7901 36.9539 50.1343 37.682C52.015 38.2658 53.8057 39.1635 55.554 40.1945C56.3509 40.6646 57.0873 41.2805 57.8506 41.8311C58.9148 42.5981 59.9839 43.3576 61.041 44.1367C62.0262 44.8624 63.0076 45.5959 63.9745 46.3509C65.1997 47.308 66.4228 48.2668 67.5275 49.3949C68.5711 50.4607 69.4768 51.6232 70.192 52.9106C70.9225 54.2252 71.3729 55.6049 71.5547 57.0239C71.8399 59.2475 71.409 61.1853 70.3628 62.8788C69.884 63.6537 69.2611 64.2883 68.5775 64.8618Z" fill="#7A1D47"/>
<circle opacity="0.5" cx="43.0183" cy="16.6411" r="3.96217" fill="#212121"/>
<circle opacity="0.5" cx="12.6414" cy="50.7157" r="2.64145" fill="#212121"/>
<circle opacity="0.5" cx="67.3192" cy="38.301" r="1.84901" fill="#212121"/>
<path d="M23.585 31.6743C23.585 29.632 25.2406 27.9763 27.283 27.9763H52.1126C55.322 27.9763 57.9237 30.5781 57.9237 33.7875V52.8059C57.9237 56.0153 55.322 58.6171 52.1126 58.6171H29.3961C26.1867 58.6171 23.585 56.0153 23.585 52.8059V31.6743Z" fill="white"/>
<rect x="22" y="26.3914" width="34.3388" height="30.6408" rx="4.7546" stroke="#00455D" stroke-width="1.58487" stroke-linecap="round" stroke-linejoin="round"/>
<path d="M31.5093 23.75V29.297" stroke="#00455D" stroke-width="1.58487" stroke-linecap="round" stroke-linejoin="round"/>
<path d="M46.8296 23.75V29.297" stroke="#00455D" stroke-width="1.58487" stroke-linecap="round" stroke-linejoin="round"/>
<path d="M22.7925 36.4289H56.0747" stroke="#00455D" stroke-width="1.58487" stroke-linecap="round" stroke-linejoin="round"/>
<path d="M35.7744 49.9003L42.1139 41.976" stroke="#00455D" stroke-width="1.58487" stroke-linecap="round" stroke-linejoin="round"/>
<path d="M42.1138 49.9003L35.7743 41.976" stroke="#00455D" stroke-width="1.58487" stroke-linecap="round" stroke-linejoin="round"/>
</svg>
