<?xml version="1.0" standalone="no"?>
<svg xmlns:xlink="http://www.w3.org/1999/xlink" id="wave" style="transform:rotate(0deg); transition: 0.3s" viewBox="0 0 1440 200" version="1.1" xmlns="http://www.w3.org/2000/svg"><defs><linearGradient id="sw-gradient-0" x1="0" x2="0" y1="1" y2="0"><stop stop-color="rgba(103.852, 186.392, 228.049, 1)" offset="0%"/><stop stop-color="rgba(61.643, 132.821, 196.174, 1)" offset="100%"/></linearGradient></defs><path style="transform:translate(0, 0px); opacity:1" fill="url(#sw-gradient-0)" d="M0,20L48,46.7C96,73,192,127,288,140C384,153,480,127,576,100C672,73,768,47,864,36.7C960,27,1056,33,1152,53.3C1248,73,1344,107,1440,103.3C1536,100,1632,60,1728,50C1824,40,1920,60,2016,70C2112,80,2208,80,2304,86.7C2400,93,2496,107,2592,96.7C2688,87,2784,53,2880,56.7C2976,60,3072,100,3168,123.3C3264,147,3360,153,3456,150C3552,147,3648,133,3744,120C3840,107,3936,93,4032,103.3C4128,113,4224,147,4320,143.3C4416,140,4512,100,4608,96.7C4704,93,4800,127,4896,136.7C4992,147,5088,133,5184,126.7C5280,120,5376,120,5472,123.3C5568,127,5664,133,5760,120C5856,107,5952,73,6048,66.7C6144,60,6240,80,6336,103.3C6432,127,6528,153,6624,163.3C6720,173,6816,167,6864,163.3L6912,160L6912,200L6864,200C6816,200,6720,200,6624,200C6528,200,6432,200,6336,200C6240,200,6144,200,6048,200C5952,200,5856,200,5760,200C5664,200,5568,200,5472,200C5376,200,5280,200,5184,200C5088,200,4992,200,4896,200C4800,200,4704,200,4608,200C4512,200,4416,200,4320,200C4224,200,4128,200,4032,200C3936,200,3840,200,3744,200C3648,200,3552,200,3456,200C3360,200,3264,200,3168,200C3072,200,2976,200,2880,200C2784,200,2688,200,2592,200C2496,200,2400,200,2304,200C2208,200,2112,200,2016,200C1920,200,1824,200,1728,200C1632,200,1536,200,1440,200C1344,200,1248,200,1152,200C1056,200,960,200,864,200C768,200,672,200,576,200C480,200,384,200,288,200C192,200,96,200,48,200L0,200Z"/><defs><linearGradient id="sw-gradient-1" x1="0" x2="0" y1="1" y2="0"><stop stop-color="rgba(25.529, 55.781, 218.941, 1)" offset="0%"/><stop stop-color="rgba(66.406, 158.787, 168.852, 1)" offset="100%"/></linearGradient></defs><path style="transform:translate(0, 50px); opacity:0.9" fill="url(#sw-gradient-1)" d="M0,40L48,53.3C96,67,192,93,288,90C384,87,480,53,576,40C672,27,768,33,864,33.3C960,33,1056,27,1152,46.7C1248,67,1344,113,1440,130C1536,147,1632,133,1728,110C1824,87,1920,53,2016,53.3C2112,53,2208,87,2304,103.3C2400,120,2496,120,2592,103.3C2688,87,2784,53,2880,33.3C2976,13,3072,7,3168,23.3C3264,40,3360,80,3456,90C3552,100,3648,80,3744,86.7C3840,93,3936,127,4032,116.7C4128,107,4224,53,4320,26.7C4416,0,4512,0,4608,0C4704,0,4800,0,4896,3.3C4992,7,5088,13,5184,16.7C5280,20,5376,20,5472,33.3C5568,47,5664,73,5760,93.3C5856,113,5952,127,6048,116.7C6144,107,6240,73,6336,80C6432,87,6528,133,6624,136.7C6720,140,6816,100,6864,80L6912,60L6912,200L6864,200C6816,200,6720,200,6624,200C6528,200,6432,200,6336,200C6240,200,6144,200,6048,200C5952,200,5856,200,5760,200C5664,200,5568,200,5472,200C5376,200,5280,200,5184,200C5088,200,4992,200,4896,200C4800,200,4704,200,4608,200C4512,200,4416,200,4320,200C4224,200,4128,200,4032,200C3936,200,3840,200,3744,200C3648,200,3552,200,3456,200C3360,200,3264,200,3168,200C3072,200,2976,200,2880,200C2784,200,2688,200,2592,200C2496,200,2400,200,2304,200C2208,200,2112,200,2016,200C1920,200,1824,200,1728,200C1632,200,1536,200,1440,200C1344,200,1248,200,1152,200C1056,200,960,200,864,200C768,200,672,200,576,200C480,200,384,200,288,200C192,200,96,200,48,200L0,200Z"/></svg>